<?xml version="1.0" encoding="utf-8"?>
<!-- Generator: Adobe Illustrator 16.0.0, SVG Export Plug-In . SVG Version: 6.00 Build 0)  -->
<!DOCTYPE svg PUBLIC "-//W3C//DTD SVG 1.0//EN" "http://www.w3.org/TR/2001/REC-SVG-20010904/DTD/svg10.dtd">
<svg version="1.0" id="Layer_2" xmlns="http://www.w3.org/2000/svg" xmlns:xlink="http://www.w3.org/1999/xlink" x="0px" y="0px"
	 width="431.875px" height="82.451px" viewBox="0 0 431.875 82.451" enable-background="new 0 0 431.875 82.451"
	 xml:space="preserve">
<g>
	<path fill="#FFFFFF" d="M0,66.19V33.238h3.295v29.924h13.626v3.028H0z"/>
	<path fill="#FFFFFF" d="M33.397,32.703c4.364,0,8.127,1.641,11.289,4.921c3.161,3.28,4.742,7.281,4.742,12.001
		c0,4.75-1.559,8.802-4.676,12.157c-3.117,3.355-6.902,5.032-11.355,5.032c-4.305,0-8.046-1.632-11.222-4.898
		c-3.266-3.354-4.898-7.362-4.898-12.023c0-4.809,1.573-8.876,4.721-12.202C25.144,34.366,28.944,32.703,33.397,32.703z
		 M33.486,35.909c-3.622-0.029-6.709,1.322-9.262,4.053c-2.554,2.731-3.83,6.042-3.83,9.93c0,3.771,1.291,6.999,3.874,9.686
		c2.583,2.687,5.655,4.03,9.218,4.03c3.533,0,6.583-1.358,9.151-4.074c2.567-2.716,3.852-6.019,3.852-9.908
		c0-3.77-1.313-6.999-3.94-9.686C39.921,37.253,36.9,35.909,33.486,35.909z"/>
	<path fill="#FFFFFF" d="M53.614,66.19V33.238h7.837c2.049,0,3.808,0.097,5.277,0.289c1.469,0.193,2.827,0.631,4.074,1.313
		c1.662,0.951,2.939,2.234,3.83,3.852c0.891,1.618,1.336,3.391,1.336,5.32c0,2.671-0.95,4.986-2.849,6.945
		c-1.898,1.959-4.183,2.938-6.853,2.938l9.234,12.312l-4.076-0.016L60.204,51.228h0.98l1.068,0.089c1.157,0,2.249-0.066,3.272-0.2
		c1.024-0.134,1.982-0.393,2.873-0.779c1.336-0.624,2.382-1.521,3.139-2.694c0.758-1.172,1.136-2.5,1.136-3.985
		c0-1.098-0.282-2.182-0.846-3.25c-0.564-1.069-1.321-1.944-2.271-2.627c-0.683-0.504-1.559-0.883-2.627-1.136
		c-1.069-0.252-2.657-0.378-4.765-0.378h-5.255V66.19H53.614z"/>
	<path fill="#FFFFFF" d="M80.065,66.19V33.238h23.334v3.028H83.36v11.845h20.039v2.939H83.36v12.112h20.039v3.028H80.065z"/>
	<path fill="#FFFFFF" d="M109.812,66.19V33.238l4.453-0.001L132.7,60.551V33.238h3.295V66.19l-3.296,0l-19.593-28.946V66.19H109.812
		z"/>
</g>
<g>
	<path fill="#FFFFFF" d="M228.594,66.227V36.525h8.594c1.633,0,3.065,0.141,4.298,0.423c1.231,0.283,2.374,0.846,3.429,1.692
		c1.054,0.846,1.893,1.93,2.516,3.251c0.624,1.321,0.936,2.665,0.936,4.03c0,1.128-0.223,2.293-0.668,3.496
		c-0.445,1.203-1.032,2.19-1.759,2.961c-0.729,0.772-1.529,1.388-2.405,1.848c-0.876,0.46-1.833,0.794-2.872,1.002l8.016,10.999
		h-6.769l-7.748-11.4v11.4H228.594z M234.16,50.641h2.938c0.979,0,1.826-0.074,2.538-0.223c0.713-0.148,1.336-0.475,1.87-0.979
		c0.92-0.861,1.381-1.93,1.381-3.206c0-1.396-0.534-2.509-1.604-3.34c-0.475-0.356-1.017-0.608-1.625-0.757
		c-0.608-0.148-1.195-0.223-1.759-0.223h-3.74V50.641z"/>
	<path fill="#FFFFFF" d="M252.284,66.227V36.525h21.374v5.388h-15.808v6.813h15.808v5.299h-15.808v6.813h15.808v5.388H252.284z"/>
	<path fill="#FFFFFF" d="M288.397,66.227V56.029l-9.708-19.504h6.148l6.46,12.88l6.313-12.883l6.017,0.003l-9.707,19.504
		l-0.001,10.198H288.397z"/>
	<path fill="#FFFFFF" d="M308.927,66.227V36.525h6.189l12.335,21.687V36.525h5.566v29.702l-6.084-0.01l-12.44-21.602v21.611H308.927
		z"/>
	<path fill="#FFFFFF" d="M350.741,35.901c3.829,0,7.103,1.517,9.818,4.549c2.717,3.032,4.075,6.704,4.075,11.014
		c0,4.281-1.366,7.923-4.097,10.926c-2.732,3.003-5.997,4.504-9.797,4.504c-3.86,0-7.147-1.494-9.864-4.481
		c-2.716-2.988-4.074-6.637-4.074-10.949c0-4.34,1.351-8.019,4.053-11.037C343.556,37.411,346.852,35.901,350.741,35.901z
		 M350.741,41.29c-2.494,0-4.609,0.975-6.346,2.923c-1.737,1.949-2.605,4.321-2.605,7.119c0,2.767,0.875,5.162,2.628,7.186
		c1.751,2.023,3.858,3.034,6.323,3.034c2.404,0,4.504-1.019,6.301-3.057c1.796-2.038,2.694-4.426,2.694-7.163
		c0-2.767-0.876-5.132-2.628-7.096C355.356,42.272,353.234,41.29,350.741,41.29z"/>
	<path fill="#FFFFFF" d="M368.33,66.227V36.525h5.566v24.314h9.039v5.388H368.33z"/>
	<path fill="#FFFFFF" d="M386.454,66.227V36.525h6.278c2.701,0,4.883,0.193,6.546,0.579c2.256,0.534,4.193,1.485,5.812,2.85
		c1.618,1.366,2.879,3.088,3.785,5.166c0.905,2.078,1.358,4.216,1.358,6.412c0,2.079-0.453,4.135-1.358,6.167
		c-0.906,2.034-2.16,3.741-3.763,5.121c-1.604,1.38-3.519,2.323-5.745,2.828c-1.662,0.386-3.845,0.579-6.546,0.579H386.454z
		 M392.021,60.839h0.623c1.988,0,3.474-0.089,4.453-0.267c1.514-0.268,2.864-0.846,4.052-1.737c2.405-1.811,3.607-4.245,3.607-7.303
		c0-1.632-0.327-3.124-0.979-4.475c-0.653-1.351-1.633-2.472-2.939-3.362c-0.831-0.563-1.855-1.002-3.072-1.313
		c-1.218-0.312-2.999-0.468-5.344-0.468h-0.4V60.839z"/>
	<path fill="#FFFFFF" d="M412.638,57.9h5.744c0,1.085,0.408,1.958,1.225,2.618c0.816,0.659,1.773,0.989,2.872,0.989
		c1.069,0,1.982-0.348,2.739-1.044s1.135-1.563,1.135-2.601c0-1.481-0.549-2.637-1.647-3.467c-0.653-0.504-1.825-1.037-3.518-1.601
		c-1.188-0.385-2.108-0.727-2.761-1.023c-0.891-0.444-1.678-1.007-2.36-1.688c-1.544-1.6-2.315-3.497-2.315-5.69
		c0-2.371,0.853-4.363,2.561-5.979c1.707-1.615,3.763-2.422,6.167-2.422c2.315,0,4.342,0.824,6.079,2.471
		c1.736,1.648,2.604,3.629,2.604,5.945h-5.7c0-0.919-0.329-1.662-0.986-2.227c-0.658-0.563-1.436-0.846-2.332-0.846
		c-0.927,0-1.659,0.296-2.197,0.889c-0.539,0.593-0.808,1.348-0.808,2.267c0,0.949,0.402,1.734,1.207,2.356
		c0.477,0.356,1.452,0.793,2.927,1.312c1.475,0.52,2.376,0.853,2.703,1c1.072,0.445,1.996,0.994,2.771,1.645
		c2.086,1.689,3.129,3.927,3.129,6.712c0,2.608-0.943,4.824-2.828,6.646c-1.886,1.823-4.148,2.734-6.791,2.734
		c-2.582,0-4.831-0.863-6.746-2.592S412.638,60.441,412.638,57.9z"/>
</g>
<g>
	<g>
		<path fill="#F59D20" d="M211.257,44.519h-56.615v-3.932h60.547v25.687h-66.438c-0.917,3.479-3.963,11.358-13.272,15.395
			l-1.804,0.782l-1.563-3.607l1.804-0.783c9.893-4.289,11.286-13.917,11.299-14.014l0.228-1.705h65.815"/>
	</g>
	<g>
		<path fill="#F59D20" d="M215.331,80.95c-1.182,0-3.948-0.234-6.134-2.219c-1.902-1.728-2.866-4.264-2.866-7.539v-5.413h3.931
			v5.413c0,2.12,0.531,3.677,1.579,4.629c1.476,1.34,3.666,1.196,3.688,1.194l0.377,3.914
			C215.87,80.932,215.663,80.95,215.331,80.95z"/>
	</g>
	<g>
		<path fill="#F59D20" d="M206.014,55.546h-60.625l0.364-2.276c3.577-22.345-8.81-49.566-8.935-49.838l-0.823-1.786L139.565,0
			l0.823,1.786c0.516,1.119,12.222,26.856,9.56,49.829h56.065V55.546z"/>
	</g>
</g>
</svg>
